<?xml version="1.0" standalone="no"?>
<!DOCTYPE svg PUBLIC "-//W3C//DTD SVG 20010904//EN"
 "http://www.w3.org/TR/2001/REC-SVG-20010904/DTD/svg10.dtd">
<svg version="1.0" xmlns="http://www.w3.org/2000/svg"
 width="1024.000000pt" height="1024.000000pt" viewBox="0 0 1024.000000 1024.000000"
 preserveAspectRatio="xMidYMid meet">

<g transform="translate(0.000000,1024.000000) scale(0.100000,-0.100000)"
fill="#000000" stroke="none">
<path d="M4775 9609 c-121 -12 -356 -54 -474 -84 -460 -116 -953 -380 -1291
-689 -581 -532 -949 -1274 -1011 -2041 -16 -198 -6 -532 21 -720 189 -1285
1177 -2323 2470 -2595 247 -52 374 -65 625 -64 247 0 396 15 615 58 503 100
1019 348 1401 673 620 526 973 1156 1091 1946 29 196 32 661 5 842 -87 587
-302 1092 -647 1525 -110 137 -330 362 -450 460 -453 367 -985 595 -1570 671
-187 24 -628 34 -785 18z m595 -239 c365 -33 721 -131 1035 -285 124 -60 375
-204 375 -215 0 -3 -745 -5 -1655 -5 -910 0 -1655 2 -1655 5 0 8 114 81 218
139 338 191 746 319 1142 360 122 12 406 13 540 1z m1735 -747 c31 -18 73 -65
84 -96 7 -18 11 -135 11 -310 l0 -282 -2080 0 -2080 0 0 288 c0 298 1 309 44
355 54 60 -21 57 1176 62 1468 7 2818 -1 2845 -17z m-4287 -2955 l-3 -863 -48
68 c-373 522 -564 1183 -526 1816 32 538 216 1066 516 1483 l58 80 3 -861 c1
-473 1 -1249 0 -1723z m4705 2444 c235 -351 385 -738 452 -1172 22 -139 31
-519 16 -678 -35 -383 -129 -699 -311 -1049 -64 -123 -228 -385 -251 -398 -5
-4 -9 654 -9 1715 0 1031 4 1719 9 1716 5 -4 48 -63 94 -134z m-2963 -579 c0
-176 2 -191 24 -238 39 -84 124 -145 203 -145 25 0 20 14 76 -213 19 -75 42
-148 51 -162 9 -14 33 -29 56 -35 33 -9 40 -15 40 -36 0 -38 -24 -86 -61 -121
-58 -55 -98 -66 -274 -73 -201 -10 -253 -26 -337 -110 -45 -45 -60 -69 -74
-115 -32 -113 -5 -226 78 -319 l39 -46 -43 -17 c-24 -9 -88 -40 -143 -67
l-100 -51 -3 -595 c-2 -448 1 -601 10 -618 12 -24 75 -56 468 -240 129 -61
303 -143 385 -182 113 -54 157 -70 180 -66 31 5 914 429 975 469 l35 22 3 597
c2 593 2 597 -19 616 -11 11 -143 75 -292 142 -150 68 -346 156 -437 197 -207
94 -255 113 -285 113 -13 0 -120 -43 -238 -95 -236 -105 -273 -113 -346 -75
-56 28 -81 64 -81 115 0 48 27 90 69 107 14 6 98 14 186 18 176 9 238 24 326
81 100 64 167 169 177 273 5 65 13 75 52 76 26 1 45 13 68 41 8 12 102 344
102 364 0 1 18 5 41 9 85 14 152 65 188 146 18 40 21 66 21 233 l0 187 760 0
760 0 0 -1583 0 -1582 -82 -82 c-355 -348 -805 -598 -1312 -728 -207 -53 -380
-76 -626 -82 -166 -4 -246 -2 -350 11 -656 80 -1244 356 -1707 800 l-83 79 0
1583 0 1584 760 0 760 0 0 -187z m910 29 c0 -126 -3 -162 -16 -180 -15 -22
-16 -22 -334 -22 -318 0 -319 0 -334 22 -13 18 -16 54 -16 180 l0 158 350 0
350 0 0 -158z m-263 -424 c-2 -7 -15 -57 -28 -110 l-23 -98 -36 0 -35 0 -24
98 c-13 53 -26 103 -28 110 -4 9 17 12 87 12 70 0 91 -3 87 -12z m210 -1244
c164 -75 317 -145 341 -156 24 -11 42 -21 40 -23 -11 -11 -661 -305 -673 -305
-9 0 -90 34 -181 75 -90 41 -239 109 -331 151 -93 42 -170 78 -172 80 -2 2 7
8 20 13 13 5 166 75 339 155 173 80 316 145 317 145 0 1 135 -60 300 -135z
m-609 -572 l212 -97 0 -437 c0 -241 -3 -438 -6 -438 -4 0 -113 51 -243 113
-130 63 -291 140 -358 172 l-123 58 0 433 0 432 153 -69 c83 -39 248 -114 365
-167z m1142 -195 l0 -434 -178 -86 c-99 -48 -230 -111 -293 -140 -63 -30 -143
-68 -178 -86 -36 -17 -68 -31 -73 -31 -4 0 -8 197 -8 438 l1 437 362 167 c199
92 363 168 365 168 1 0 2 -195 2 -433z"/>
<path d="M4615 8501 c-122 -55 -181 -205 -130 -329 22 -53 92 -116 147 -131
31 -9 173 -11 508 -9 458 3 466 3 507 25 78 42 133 136 133 227 0 90 -82 199
-169 224 -27 8 -177 12 -497 12 -423 0 -462 -2 -499 -19z m943 -193 c17 -17
15 -44 -4 -62 -13 -14 -66 -16 -430 -16 -267 0 -422 4 -435 10 -21 12 -25 50
-7 68 17 17 859 17 876 0z"/>
<path d="M1546 2964 c-91 -29 -176 -143 -176 -236 l0 -28 89 0 89 0 12 35 c15
44 44 65 93 65 77 0 115 -86 65 -145 -18 -21 -35 -27 -81 -32 l-58 -6 3 -71 3
-71 60 -5 c76 -7 100 -21 115 -66 24 -71 -10 -134 -81 -149 -45 -10 -101 22
-115 65 l-12 35 -98 0 -99 0 2 -47 c2 -69 46 -143 108 -184 65 -43 128 -58
218 -52 200 13 320 160 277 339 -10 42 -24 64 -64 104 l-51 51 28 23 c37 30
57 72 64 130 11 91 -42 183 -129 227 -66 34 -187 42 -262 18z"/>
<path d="M8360 2969 c-142 -28 -272 -152 -313 -299 -53 -188 -13 -364 108
-479 175 -166 451 -161 610 11 71 77 97 144 103 271 l4 97 -201 0 -201 0 0
-85 0 -85 100 0 c55 0 100 -2 100 -5 0 -18 -34 -66 -64 -93 -66 -57 -169 -65
-251 -19 -141 79 -169 319 -52 441 49 51 105 70 185 64 59 -5 96 -27 127 -76
l20 -31 108 -1 c123 0 123 0 83 86 -77 164 -258 244 -466 203z"/>
<path d="M3228 2964 c-5 -4 -8 -205 -8 -446 l0 -439 103 3 102 3 0 145 0 144
75 3 c107 3 145 10 200 38 95 48 144 136 144 261 0 68 -4 89 -28 137 -15 31
-44 70 -64 87 -65 53 -108 62 -322 67 -107 3 -198 2 -202 -3z m375 -195 c55
-43 58 -150 5 -194 -26 -22 -39 -25 -109 -25 l-79 0 0 120 0 120 79 0 c64 0
83 -4 104 -21z"/>
<path d="M3968 2964 c-5 -4 -8 -205 -8 -446 l0 -438 100 0 100 0 1 128 c1 70
0 139 -1 155 -1 25 1 27 37 27 36 0 41 -4 63 -42 12 -24 52 -91 88 -150 l64
-108 115 0 c89 0 114 3 110 13 -2 7 -52 81 -110 165 l-106 152 37 19 c87 45
134 125 134 230 1 136 -43 214 -150 264 l-67 32 -200 3 c-110 2 -203 0 -207
-4z m371 -188 c33 -18 51 -54 51 -107 0 -89 -42 -119 -162 -119 l-70 0 4 120
3 120 73 0 c44 0 84 -6 101 -14z"/>
<path d="M4750 2531 l0 -440 43 -3 c23 -2 68 -1 100 0 l57 4 0 439 0 439 -100
0 -100 0 0 -439z"/>
<path d="M5110 2525 l0 -445 100 0 100 0 0 263 1 262 24 -30 c14 -16 63 -91
110 -165 46 -74 112 -177 147 -229 l63 -94 105 0 105 0 3 442 2 441 -100 0
-100 0 0 -285 c0 -157 -4 -285 -8 -285 -5 0 -14 12 -21 26 -6 15 -85 143 -173
285 l-162 259 -98 0 -98 0 0 -445z"/>
<path d="M5982 2878 l3 -93 117 -3 118 -3 2 -346 3 -347 99 -1 99 0 -1 348 -1
347 114 0 c63 0 115 3 117 8 2 4 2 46 0 95 l-3 87 -335 0 -335 0 3 -92z"/>
<path d="M6780 2525 l0 -446 98 3 97 3 3 443 2 442 -100 0 -100 0 0 -445z"/>
<path d="M7150 2683 c0 -159 -2 -357 -5 -440 l-5 -153 40 -1 c22 0 68 0 103
-1 l62 0 0 260 c0 167 3 258 10 251 5 -5 81 -122 170 -260 l160 -252 80 0 c44
0 92 1 108 2 l27 1 -2 438 -3 437 -99 0 -99 0 2 -277 c2 -255 -3 -313 -23
-262 -6 16 -286 470 -318 517 -19 26 -22 27 -114 27 l-94 0 0 -287z"/>
<path d="M2098 2528 c-3 -238 -4 -435 -3 -438 2 -3 95 -2 207 1 231 6 271 16
373 92 116 85 172 215 163 376 -7 112 -43 197 -116 270 -103 103 -199 131
-445 131 l-174 0 -5 -432z m370 237 c205 -61 230 -369 39 -467 -30 -15 -68
-22 -131 -26 l-89 -5 6 244 c4 134 7 250 7 257 0 17 104 16 168 -3z"/>
<path d="M3172 1766 c-175 -58 -256 -244 -165 -383 36 -57 91 -88 222 -129
128 -41 161 -64 161 -116 0 -46 -24 -75 -71 -88 -76 -21 -143 9 -159 71 l-11
39 -99 0 -100 0 0 -37 c0 -105 66 -192 175 -233 74 -27 206 -30 275 -5 133 47
200 134 200 259 -1 151 -59 207 -289 277 -97 30 -131 58 -131 109 0 57 37 83
108 78 62 -5 83 -22 91 -75 l6 -38 100 0 c96 0 100 1 103 23 2 12 -4 46 -12
75 -19 65 -70 120 -144 155 -67 30 -194 39 -260 18z"/>
<path d="M6856 1769 c-113 -27 -234 -130 -290 -249 -30 -63 -31 -70 -31 -200
0 -134 0 -136 34 -205 45 -91 120 -166 208 -208 65 -30 74 -32 188 -32 114 0
123 2 188 32 121 58 204 156 242 287 24 82 17 239 -14 319 -47 119 -188 232
-320 257 -64 12 -151 11 -205 -1z m219 -198 c83 -36 128 -118 129 -236 1 -96
-14 -144 -63 -198 -48 -53 -101 -77 -175 -77 -150 0 -246 119 -234 290 14 191
174 294 343 221z"/>
<path d="M3680 1676 l0 -96 120 0 120 0 0 -344 0 -345 96 -3 c53 -2 98 -1 100
1 2 2 4 159 4 347 l0 343 113 3 112 3 3 88 3 87 -108 0 c-59 0 -210 3 -335 6
l-228 6 0 -96z"/>
<path d="M5325 1759 c-3 -8 -4 -207 -3 -444 l3 -430 130 -3 c252 -6 368 24
470 120 111 103 151 200 143 347 -7 116 -34 185 -105 262 -111 119 -192 147
-450 156 -152 5 -183 4 -188 -8z m400 -198 c92 -42 134 -116 135 -234 0 -85
-12 -125 -55 -175 -44 -53 -98 -75 -198 -81 l-87 -6 0 258 0 257 83 0 c58 0
94 -6 122 -19z"/>
<path d="M4457 1638 c2 -68 4 -215 5 -328 3 -202 3 -206 31 -262 57 -116 168
-180 310 -179 133 1 212 33 286 117 69 79 74 106 79 462 l4 312 -101 0 -100 0
-3 -297 c-3 -278 -4 -300 -23 -333 -61 -105 -253 -86 -285 28 -6 21 -10 155
-10 320 l0 282 -97 0 -98 0 2 -122z"/>
<path d="M6202 1323 l3 -438 100 2 c63 1 100 6 99 12 -1 6 -2 202 -2 436 l-2
425 -100 0 -100 0 2 -437z"/>
</g>
</svg>
